<svg height="511pt" viewBox="-42 0 511 511.90306" width="511pt" xmlns="http://www.w3.org/2000/svg"><path d="m417.65625 244.871094c8.59375-7.296875 11.6875-19.199219 7.730469-29.757813-5.675781-11.8125-17.730469-19.214843-30.832031-18.945312-23.140626 0-61.90625 40.730469-77.105469 63.515625-4.894531 7.410156-10.570313 14.273437-16.921875 20.480468-2.054688 1.945313-4.175782 3.800782-6.367188 5.570313-2.140625 1.707031-3.957031 2.980469-5.246094 3.816406-1.460937-.671875-2.722656-1.707031-3.671874-3.003906-2.832032-3.710937-6.894532-13.507813-2.386719-37.222656l40.78125-175.105469c2.757812-12.0625-1.207031-24.679688-10.375-32.992188-9.167969-8.316406-22.105469-11.035156-33.847657-7.113281.058594-17.308593-12.898437-31.898437-30.09375-33.886719-17.195312-1.988281-33.136718 9.261719-37.027343 26.128907l-43.085938 186.027343c-1.578125 7.5625-8.148437 13.042969-15.871093 13.242188-7.628907.578125-14.640626-4.195312-16.90625-11.5l-51.546876-150.222656c-5.4375-15.777344-21.484374-25.316406-37.941406-22.542969-16.457031 2.769531-28.496094 17.035156-28.464844 33.722656-.011718 3.773438.605469 7.523438 1.832032 11.09375l20.429687 59.417969c-6.675781-1.246094-13.570312-.496094-19.824219 2.15625-16.597656 7.640625-24.578124 26.722656-18.355468 43.90625l75.09375 217.746094c3.832031 10.25 8.941406 19.980468 15.207031 28.953125.90625 1.40625 1.367187 3.054687 1.316406 4.726562v43.222657c0 14.136718 11.460938 25.597656 25.597657 25.597656h136.535156c14.136718 0 25.597656-11.460938 25.597656-25.597656v-3.160157c0-16.015625.769531-31.425781 10.027344-43.917969 3.425781-4.351562 7.210937-8.402343 11.316406-12.121093 28.160156-26.921875 44.535156-61.496094 60.347656-94.941407 15.273438-32.382812 29.738282-62.964843 54.058594-87.292968zm-126.285156 169.949218c-4.796875 4.367188-9.210938 9.136719-13.191406 14.257813-12.339844 16.648437-13.371094 35.839844-13.371094 54.066406v3.160157c0 4.710937-3.824219 8.53125-8.535156 8.53125h-136.535157c-4.710937 0-8.53125-3.820313-8.53125-8.53125v-43.265626c.054688-5.136718-1.460937-10.167968-4.335937-14.421874-5.363282-7.699219-9.765625-16.027344-13.105469-24.796876l-75.09375-217.761718c-3.246094-8.730469.609375-18.503906 8.941406-22.664063 4.542969-1.933593 9.695313-1.824219 14.148438.296875 3.484375 1.753906 6.304687 4.59375 8.03125 8.089844.167969.25.351562.492188.546875.726562.019531.339844.066406.679688.136718 1.015626l30.515626 89.207031c1.179687 3.453125 4.429687 5.769531 8.078124 5.769531.9375-.003906 1.871094-.15625 2.757813-.453125 2.140625-.734375 3.90625-2.285156 4.902344-4.316406.996093-2.035157 1.144531-4.378907.414062-6.523438l-30.515625-89.199219c-.253906-.574218-.570312-1.117187-.949218-1.621093-.023438-.382813-.078126-.765625-.160157-1.140625l-29.125-84.652344c-3.0625-8.929688 1.691407-18.648438 10.621094-21.710938 8.925781-3.066406 18.648437 1.691407 21.710937 10.617188l51.535157 150.1875c4.949219 14.402344 18.84375 23.78125 34.054687 22.988281 15.207032-.789062 28.050782-11.5625 31.480469-26.402343l43.09375-186.027344c1.160156-4.949219 4.457031-9.125 9.003906-11.40625 4.511719-2.289063 9.8125-2.433594 14.445313-.394532 7.703125 3.871094 11.625 12.625 9.386718 20.949219l-4.011718 17.066407-45.292969 180.292968c-1.152344 4.570313 1.617187 9.207032 6.183594 10.359375.691406.171875 1.398437.257813 2.109375.257813 3.910156-.003906 7.316406-2.664063 8.269531-6.453125l45.261719-179.984375c2.953125-8.582032 12.109375-13.347656 20.835937-10.847656 8.722657 2.496093 13.96875 11.390624 11.929688 20.234374l-40.855469 175.453126c-4.566406 24.003906-2.46875 41.5 6.226562 52.003906.1875.21875.378907.367187.554688.578125-3.863281 1.453125-7.804688 2.664062-11.699219 3.832031-12.988281 3.433594-24.238281 11.570312-31.570312 22.828125-4.800781 7.371094-7.417969 15.949219-7.542969 24.746094 0 4.710937 3.820312 8.53125 8.53125 8.53125 4.714844 0 8.535156-3.820313 8.535156-8.53125.132813-5.578125 1.832032-11.003907 4.90625-15.660157 5.132813-7.761718 12.992188-13.316406 22.023438-15.574218 9.070312-2.359375 17.800781-5.886719 25.964844-10.484375 2.195312-1.324219 4.269531-2.902344 6.351562-4.378907.851562-.554687 1.792969-1.210937 2.839844-1.960937 1.050781-.753906 2.203125-1.621094 3.277344-2.476563 2.277343-1.808593 4.8125-3.960937 7.585937-6.605468l.152344-.167969c.480469-.453125 1.015625-.855469 1.488281-1.300781.296875-.347656.566406-.722656.800781-1.117188 6.335938-6.402344 12.050781-13.394531 17.066407-20.878906 17.417968-26.121094 50.933593-55.917969 62.90625-55.917969 6.1875-.1875 11.976562 3.042969 15.070312 8.402344 1.382812 3.347656 0 7.101563-4.035156 11.164063-26.453125 26.453124-42.199219 59.792968-57.453125 92.066406-15.847657 33.507812-30.816407 65.167968-56.765625 89.949218zm0 0"/><path d="m239.222656 443.636719h-8.53125c-4.714844 0-8.535156 3.820312-8.535156 8.53125 0 4.714843 3.820312 8.535156 8.535156 8.535156h8.53125c4.714844 0 8.535156-3.820313 8.535156-8.535156 0-4.710938-3.820312-8.53125-8.535156-8.53125zm0 0"/><path d="m196.558594 443.636719h-59.734375c-4.714844 0-8.535157 3.820312-8.535157 8.53125 0 4.714843 3.820313 8.535156 8.535157 8.535156h59.734375c4.710937 0 8.53125-3.820313 8.53125-8.535156 0-4.710938-3.820313-8.53125-8.53125-8.53125zm0 0"/></svg>